name processed_emg_signals						
nRows=51						
nColumns=7						
 						
endheader						
time	RGLTMED	RRF	RADDLONG	RST	RTA	RGM
0.64	0.106979667	0.031757065	0.021792979	0.204423999	0.105122198	0.374299004
0.641	0.104876037	0.031835942	0.021584855	0.202633787	0.105211067	0.376333634
0.642	0.102780262	0.03191417	0.021388782	0.200833605	0.105297139	0.378324433
0.643	0.100693715	0.031991698	0.021205448	0.199024899	0.105380423	0.380270751
0.644	0.098617746	0.032068479	0.021035542	0.197209106	0.105460948	0.382171954
0.645	0.096553686	0.032144467	0.020879755	0.195387649	0.10553876	0.384027429
0.646	0.094502841	0.032219616	0.02073878	0.193561941	0.10561392	0.385836582
0.647	0.092466489	0.032293886	0.02061331	0.191733378	0.105686507	0.387598838
0.648	0.090445884	0.032367235	0.020504036	0.189903337	0.105756616	0.389313643
0.649	0.088442251	0.032439626	0.020411651	0.188073178	0.105824353	0.390980464
0.65	0.086456781	0.032511023	0.020336841	0.186244237	0.105889842	0.392598787
0.651	0.084490639	0.03258139	0.020280295	0.184417828	0.105953215	0.394168121
0.652	0.082544953	0.032650696	0.020242694	0.182595237	0.106014619	0.395687998
0.653	0.080620817	0.03271891	0.020224718	0.180777725	0.106074209	0.39715797
0.654	0.078719292	0.032786005	0.020227038	0.178966523	0.106132152	0.398577615
0.655	0.076841401	0.032851953	0.020250324	0.177162832	0.106188624	0.39994653
0.656	0.074988129	0.032916731	0.020295236	0.175367819	0.106243806	0.401264341
0.657	0.073160423	0.032980317	0.020362426	0.17358262	0.106297889	0.402530694
0.658	0.071359192	0.03304269	0.020452541	0.171808333	0.10635107	0.403745262
0.659	0.069585303	0.033103833	0.020566215	0.17004602	0.10640355	0.404907742
0.66	0.067839583	0.033163728	0.020704073	0.168296708	0.106455535	0.406017857
0.661	0.066122818	0.033222362	0.020866731	0.166561382	0.106507235	0.407075356
0.662	0.064435753	0.033279723	0.021054792	0.164840987	0.106558863	0.408080012
0.663	0.062779087	0.0333358	0.021268846	0.163136429	0.106610631	0.409031627
0.664	0.061153481	0.033390586	0.021509468	0.161448572	0.106662754	0.409930026
0.665	0.05955955	0.033444073	0.021777223	0.159778236	0.106715448	0.410775065
0.666	0.057997866	0.033496257	0.022072656	0.1581262	0.106768925	0.411566624
0.667	0.05646896	0.033547135	0.022396299	0.156493195	0.106823396	0.412304608
0.668	0.054973316	0.033596706	0.022748665	0.154879913	0.106879072	0.412988953
0.669	0.053511377	0.033644971	0.023130252	0.153286997	0.106936156	0.413619617
0.67	0.052083543	0.033691932	0.023541535	0.151715048	0.10699485	0.414196589
0.671	0.050690169	0.033737594	0.023982973	0.15016462	0.107055348	0.41471988
0.672	0.049331569	0.033781961	0.024455003	0.148636222	0.10711784	0.41518953
0.673	0.048008014	0.033825042	0.024958041	0.147130317	0.107182505	0.415605604
0.674	0.046719731	0.033866844	0.025492481	0.145647324	0.107249518	0.415968192
0.675	0.045466907	0.033907377	0.026058694	0.144187616	0.107319042	0.416277409
0.676	0.044249688	0.033946653	0.026657027	0.142751519	0.107391233	0.416533395
0.677	0.043068179	0.033984684	0.027287803	0.141339318	0.107466232	0.416736312
0.678	0.041922444	0.034021483	0.027951319	0.139951251	0.107544172	0.416886349
0.679	0.040812507	0.034057066	0.028647846	0.138587513	0.107625172	0.416983713
0.68	0.039738356	0.034091448	0.029377628	0.137248254	0.107709338	0.417028635
0.681	0.038699939	0.034124645	0.030140882	0.135933584	0.107796762	0.417021368
0.682	0.037697168	0.034156675	0.030937797	0.13464357	0.10788752	0.416962184
0.683	0.036729918	0.034187556	0.031768532	0.133378236	0.107981675	0.416851372
0.684	0.035798029	0.034217308	0.032633216	0.132137568	0.10807927	0.416689243
0.685	0.034901306	0.034245949	0.03353195	0.130921512	0.108180334	0.416476122
0.686	0.034039522	0.0342735	0.034464802	0.129729974	0.108284877	0.41621235
0.687	0.033212417	0.034299982	0.03543181	0.128562826	0.10839289	0.415898284
0.688	0.0324197	0.034325415	0.036432978	0.127419901	0.108504345	0.415534293
0.689	0.031661049	0.034349821	0.03746828	0.126300998	0.108619197	0.41512076
0.69	0.030936115	0.034373222	0.038537655	0.125205883	0.108737377	0.414658078
